HIERARCHY
ROOT Hips
{
	OFFSET -0.001795 -0.223333 0.028219
	CHANNELS 6 Xposition Yposition Zposition Zrotation Yrotation Xrotation 
	JOINT LeftUpLeg
	{
		OFFSET 0.069520 -0.091406 -0.006815
		CHANNELS 3 Zrotation Yrotation Xrotation
		JOINT LeftLeg
		{
			OFFSET 0.034277 -0.375199 -0.004496
			CHANNELS 3 Zrotation Yrotation Xrotation
			JOINT LeftFoot
			{
				OFFSET -0.013596 -0.397961 -0.043693
				CHANNELS 3 Zrotation Yrotation Xrotation
				JOINT LeftToe
				{
					OFFSET 0.026358 -0.055791 0.119288
					CHANNELS 3 Zrotation Yrotation Xrotation
					End Site
					{
						OFFSET 0.000000 0.000000 0.000000
					}
				}
			}
		}
	}
	JOINT RightUpLeg
	{
		OFFSET -0.067670 -0.090522 -0.004320
		CHANNELS 3 Zrotation Yrotation Xrotation
		JOINT RightLeg
		{
			OFFSET -0.038290 -0.382569 -0.008850
			CHANNELS 3 Zrotation Yrotation Xrotation
			JOINT RightFoot
			{
				OFFSET 0.015774 -0.398415 -0.042312
				CHANNELS 3 Zrotation Yrotation Xrotation
				JOINT RightToe
				{
					OFFSET -0.025372 -0.048144 0.123348
					CHANNELS 3 Zrotation Yrotation Xrotation
					End Site
					{
						OFFSET 0.000000 0.000000 0.000000
					}
				}
			}
		}
	}
	JOINT Spine
	{
		OFFSET -0.002533 0.108963 -0.026696
		CHANNELS 3 Zrotation Yrotation Xrotation
		JOINT Spine1
		{
			OFFSET 0.005487 0.135180 0.001092
			CHANNELS 3 Zrotation Yrotation Xrotation
			JOINT Spine2
			{
				OFFSET 0.001457 0.052922 0.025425
				CHANNELS 3 Zrotation Yrotation Xrotation
				JOINT Neck
				{
					OFFSET -0.002778 0.213870 -0.042857
					CHANNELS 3 Zrotation Yrotation Xrotation
					JOINT Head
					{
						OFFSET 0.005152 0.064970 0.051349
						CHANNELS 3 Zrotation Yrotation Xrotation
						End Site
						{
							OFFSET 0.000000 0.000000 0.000000
						}
					}
				}
				JOINT LeftShoulder
				{
					OFFSET 0.078845 0.121749 -0.034090
					CHANNELS 3 Zrotation Yrotation Xrotation
					JOINT LeftArm
					{
						OFFSET 0.090977 0.030469 -0.008868
						CHANNELS 3 Zrotation Yrotation Xrotation
						JOINT LeftForeArm
						{
							OFFSET 0.259612 -0.012772 -0.027456
							CHANNELS 3 Zrotation Yrotation Xrotation
							JOINT LeftHand
							{
								OFFSET 0.249234 0.008986 -0.001171
								CHANNELS 3 Zrotation Yrotation Xrotation
								End Site
								{
									OFFSET 0.000000 0.000000 0.000000
								}
							}
						}
					}
				}
				JOINT RightShoulder
				{
					OFFSET -0.081759 0.118833 -0.038615
					CHANNELS 3 Zrotation Yrotation Xrotation
					JOINT RightArm
					{
						OFFSET -0.096012 0.032551 -0.009143
						CHANNELS 3 Zrotation Yrotation Xrotation
						JOINT RightForeArm
						{
							OFFSET -0.253742 -0.013329 -0.021401
							CHANNELS 3 Zrotation Yrotation Xrotation
							JOINT RightHand
							{
								OFFSET -0.255298 0.007772 -0.005559
								CHANNELS 3 Zrotation Yrotation Xrotation
								End Site
								{
									OFFSET 0.000000 0.000000 0.000000
								}
							}
						}
					}
				}
			}
		}
	}
}
MOTION
Frames: 15
Frame Time: 0.050000
0.000000 0.941517 0.000000 -1.618606 0.582584 4.700667 -1.066185 0.049448 0.219094 0.093134 0.049108 -1.693189 1.239544 3.456339 2.053208 0.000000 0.000000 0.000000 -0.199682 0.237304 -2.321730 0.811929 -0.086101 -0.020807 -2.658230 -7.658768 2.896709 0.000000 0.000000 0.000000 -0.225461 0.049739 -1.139111 -0.547881 0.284235 -1.096542 0.710876 0.823505 8.200190 2.807614 -0.279211 -18.254913 0.000000 0.000000 0.000000 -20.158496 -1.524683 -1.276836 -41.298794 -1.507418 -4.526652 -5.609957 -25.878857 2.245184 0.000000 0.000000 0.000000 18.416853 4.338271 0.984466 46.607580 6.097861 -2.600731 -1.931715 22.330221 0.467338 0.000000 0.000000 0.000000 
0.002339 0.940477 0.001670 -1.578001 0.155458 5.090646 -1.078144 0.059417 0.313671 -0.436436 0.123467 -2.549631 1.055387 3.135552 2.207088 0.000000 0.000000 0.000000 -0.400174 0.271077 -2.642174 0.715079 -0.088725 -0.429692 -3.079222 -8.594363 2.717222 0.000000 0.000000 0.000000 -0.742276 0.080608 -1.769962 -0.600562 0.301159 -0.811131 0.804346 1.187973 7.962020 3.306346 -0.461618 -19.137037 0.000000 0.000000 0.000000 -18.701341 -0.254953 -1.846324 -42.313244 -1.279220 -4.693060 -5.133554 -26.184613 2.158789 0.000000 0.000000 0.000000 17.453182 3.628201 0.665704 48.004381 5.961771 -2.687312 -2.088067 24.189388 0.494399 0.000000 0.000000 0.000000 
0.004679 0.939949 0.003110 -1.542467 -0.310574 5.587641 -1.066957 -0.034516 -0.621453 -0.600617 0.102262 -1.311637 0.982614 2.473719 0.922455 0.000000 0.000000 0.000000 -0.498315 0.297789 -2.906573 0.886938 -0.104857 -0.429489 -2.932241 -8.191865 2.476642 0.000000 0.000000 0.000000 -0.412636 0.080105 -1.817145 -0.802118 0.423158 -2.467804 0.904347 1.080608 9.042898 3.030588 -0.382309 -18.928643 0.000000 0.000000 0.000000 -17.571764 0.251917 -1.862359 -42.523297 -0.754502 -4.997563 -5.788164 -25.399259 2.266398 0.000000 0.000000 0.000000 18.105861 4.520924 1.054734 46.903189 6.232017 -2.607918 -2.330278 24.594342 0.442027 0.000000 0.000000 0.000000 
0.006978 0.938769 0.004540 -1.752675 -0.016639 5.321033 -0.969098 -0.018475 -0.441201 -0.885714 0.106313 -0.431236 0.909627 2.042165 0.242688 0.000000 0.000000 0.000000 -0.426393 0.317272 -3.115758 0.850033 -0.067818 0.630587 -3.270493 -8.829576 1.943162 0.000000 0.000000 0.000000 -0.763254 0.087503 -1.937158 -0.908291 0.460238 -1.752482 1.456752 0.419128 8.687848 2.537609 -0.181852 -18.708694 0.000000 0.000000 0.000000 -17.114838 0.903071 -2.024760 -42.969460 -0.137857 -5.259871 -6.237059 -25.442302 2.401082 0.000000 0.000000 0.000000 18.058764 5.214425 1.259009 46.850080 6.595573 -2.394670 -3.137185 25.005638 0.253605 0.000000 0.000000 0.000000 
0.009265 0.938051 0.005904 -1.906642 0.011177 4.955245 -0.783617 -0.010014 -0.305599 -1.363832 0.142194 0.194608 0.867116 1.761574 -0.204429 0.000000 0.000000 0.000000 -0.584890 0.349418 -3.441147 0.711611 -0.009000 1.947274 -3.369651 -8.925564 1.441911 0.000000 0.000000 0.000000 -0.723674 0.054878 -1.037754 -0.767526 0.398495 -1.841979 1.615279 0.681494 8.224083 2.934288 -0.476943 -17.705240 0.000000 0.000000 0.000000 -17.227107 0.397268 -1.841992 -42.457467 0.085418 -5.223070 -6.338590 -24.973910 2.356575 0.000000 0.000000 0.000000 18.852929 5.139301 1.241690 45.173588 6.664268 -2.287826 -2.313014 25.264613 0.426040 0.000000 0.000000 0.000000 
0.011725 0.936820 0.007192 -2.084496 0.154361 4.581361 -0.855160 -0.004967 -0.266362 -1.089796 0.086054 1.258594 0.978407 1.530438 -1.277062 0.000000 0.000000 0.000000 -0.493024 0.399128 -3.965756 0.809361 0.046763 4.050666 -3.722717 -9.452830 0.236233 0.000000 0.000000 0.000000 -0.937951 0.035019 -0.363386 -0.647616 0.339317 -1.564614 1.925620 0.345159 8.062730 2.765777 -0.408493 -17.726518 0.000000 0.000000 0.000000 -16.780440 0.895105 -1.985076 -42.827971 0.144679 -5.298980 -6.356924 -25.414649 2.421758 0.000000 0.000000 0.000000 18.654464 5.498348 1.355230 45.415982 7.338657 -2.024796 -2.856574 25.497384 0.303571 0.000000 0.000000 0.000000 
0.014223 0.936020 0.008546 -2.163725 0.392675 4.083821 -0.872721 0.035563 0.149098 -1.281855 0.102774 1.495297 0.914955 1.115204 -1.868784 0.000000 0.000000 0.000000 -0.837168 0.498586 -5.045960 1.509640 0.033846 7.450659 -3.979841 -9.811451 -0.857437 0.000000 0.000000 0.000000 -1.165040 0.004494 0.707239 -0.567402 0.311474 -1.892940 1.924994 0.458032 8.447167 2.891873 -0.424011 -18.127134 0.000000 0.000000 0.000000 -16.970323 0.535639 -1.863730 -43.522989 -0.107774 -5.330454 -6.846230 -25.647959 2.548047 0.000000 0.000000 0.000000 19.159328 5.835377 1.607080 45.955639 7.558740 -2.026848 -2.357738 25.850509 0.430275 0.000000 0.000000 0.000000 
0.016728 0.934964 0.010030 -2.191650 0.785133 3.449692 -0.801972 0.091864 0.754206 -1.014308 0.064487 1.699239 0.972951 0.863872 -2.644125 0.000000 0.000000 0.000000 -1.116309 0.703133 -7.375459 2.634827 -0.083052 13.277289 -4.599491 -11.106326 -2.134942 0.000000 0.000000 0.000000 -1.382456 -0.021509 1.696313 -0.457517 0.257240 -1.613445 1.788448 0.802259 8.701664 3.760963 -0.849201 -18.382944 0.000000 0.000000 0.000000 -16.593681 -0.218069 -1.558549 -45.068044 -0.207817 -5.491141 -7.783154 -27.142531 2.901169 0.000000 0.000000 0.000000 19.569676 6.078065 1.906621 47.431922 7.969059 -1.993435 -2.883770 25.117455 0.348185 0.000000 0.000000 0.000000 
0.018845 0.933875 0.012024 -2.210645 1.367932 2.908906 -0.849895 0.182885 1.685669 -0.737972 0.035883 1.481602 1.126015 0.866488 -3.291609 0.000000 0.000000 0.000000 -1.424651 0.993917 -10.915664 3.631712 -0.315852 21.212818 -5.346037 -13.117767 -1.799780 0.000000 0.000000 0.000000 -1.754140 -0.035319 2.572025 -0.471381 0.265397 -1.571460 2.041388 0.665516 9.182415 3.962391 -0.935992 -18.631244 0.000000 0.000000 0.000000 -17.173646 -0.324586 -1.583622 -46.272100 -0.788710 -5.480034 -9.070688 -27.771384 3.291420 0.000000 0.000000 0.000000 19.242266 6.526335 2.217519 49.407896 7.658985 -2.229121 -2.139639 24.048739 0.487314 0.000000 0.000000 0.000000 
0.020134 0.932910 0.015034 -2.233740 2.348121 1.870709 -0.689082 0.315201 3.184598 -0.519938 -0.004083 1.884015 1.153625 0.258218 -4.475833 0.000000 0.000000 0.000000 -1.461779 1.302515 -14.811272 4.361514 -0.707241 29.145328 -5.904537 -14.690902 -0.517324 0.000000 0.000000 0.000000 -1.985599 -0.079678 4.371773 -0.248557 0.170408 -1.634154 1.728545 0.593795 9.779274 4.744269 -1.341847 -18.743283 0.000000 0.000000 0.000000 -17.536464 -0.901512 -1.425333 -47.534901 -1.824604 -5.289224 -9.533372 -28.070356 3.423916 0.000000 0.000000 0.000000 19.556696 7.110685 2.705494 50.752319 8.138657 -2.176028 -1.983283 23.470931 0.531124 0.000000 0.000000 0.000000 
0.020385 0.932467 0.019834 -2.377580 3.421576 0.448400 -0.003703 0.415377 4.810304 -0.684727 -0.010634 2.667352 0.897071 -0.471454 -4.560346 0.000000 0.000000 0.000000 -1.352570 1.493118 -17.335086 4.928516 -1.219850 35.064731 -5.821377 -14.610089 0.953171 0.000000 0.000000 0.000000 -2.194134 -0.141495 6.699277 0.357897 -0.109915 -1.470317 1.075506 0.885803 9.660365 5.093432 -1.448068 -18.652770 0.000000 0.000000 0.000000 -18.393039 -1.655585 -1.368447 -47.073049 -2.303455 -4.991547 -10.092436 -28.643880 3.565898 0.000000 0.000000 0.000000 19.312701 7.437257 3.144215 51.599067 8.236457 -2.212842 -0.583880 23.205047 0.812704 0.000000 0.000000 0.000000 
0.019852 0.931693 0.027583 -2.891339 4.009497 -0.508751 0.839456 0.452469 6.052391 -1.089871 0.004082 3.860794 1.243676 -0.281743 -5.573747 0.000000 0.000000 0.000000 -1.931437 1.609781 -20.351036 7.067452 -2.492773 38.748402 -6.340094 -15.845591 1.976120 0.000000 0.000000 0.000000 -1.867020 -0.212497 8.003432 0.215970 -0.015132 -2.070874 1.651161 -0.023780 11.201697 4.498104 -1.063186 -19.865507 0.000000 0.000000 0.000000 -19.861580 -2.243853 -0.990220 -47.134140 -3.686559 -4.660329 -9.649769 -28.691303 3.536649 0.000000 0.000000 0.000000 17.886053 7.550331 3.039442 53.166460 8.572895 -2.189574 0.809771 24.975905 1.158679 0.000000 0.000000 0.000000 
0.018490 0.929814 0.038758 -3.233143 4.118274 -0.826905 1.223523 0.496697 7.089431 -0.897165 -0.035545 4.284110 1.229191 -0.666818 -6.148675 0.000000 0.000000 0.000000 -2.087081 1.738334 -22.717814 8.072244 -2.728766 34.896118 -7.770167 -19.040907 2.297553 0.000000 0.000000 0.000000 -1.705316 -0.242144 8.432716 0.546209 -0.177650 -1.816938 1.598953 -0.273084 11.296584 3.528750 -0.560386 -19.460031 0.000000 0.000000 0.000000 -19.901787 -2.457188 -0.823813 -47.918710 -4.615459 -4.413415 -9.726567 -29.426923 3.675203 0.000000 0.000000 0.000000 15.760901 7.863452 3.115425 55.354993 8.000723 -2.453583 2.234206 26.373868 1.540225 0.000000 0.000000 0.000000 
0.016188 0.926390 0.053252 -3.529872 4.452525 -0.924715 1.638483 0.547462 8.474138 -0.552266 -0.080175 4.160062 1.863041 0.200408 -7.244584 0.000000 0.000000 0.000000 -2.211489 1.774580 -23.901097 8.226689 -2.282064 26.551683 -8.644123 -20.826913 4.239609 0.000000 0.000000 0.000000 -1.568146 -0.274310 8.945391 0.849371 -0.303984 -2.062557 1.935740 -0.354172 11.516526 2.774727 -0.071131 -19.865764 0.000000 0.000000 0.000000 -21.062005 -3.361057 -0.439535 -47.724234 -5.131607 -4.208930 -10.099984 -30.239316 3.885139 0.000000 0.000000 0.000000 14.719424 8.456657 3.404839 55.676756 7.892590 -2.513803 2.265325 27.719770 1.643839 0.000000 0.000000 0.000000 
0.012786 0.922092 0.070749 -3.528129 4.471706 -0.405832 1.623453 0.592917 9.191061 -0.403216 -0.116315 4.591751 2.491493 1.340209 -7.984879 0.000000 0.000000 0.000000 -2.318844 1.809389 -24.789507 7.116246 -1.417748 17.018079 -9.046580 -21.517711 6.158511 0.000000 0.000000 0.000000 -1.174564 -0.298967 8.810602 0.677591 -0.214213 -2.283797 1.874083 -0.206653 11.410633 2.491667 0.177933 -20.486212 0.000000 0.000000 0.000000 -21.049639 -3.966220 -0.156827 -48.201369 -5.642011 -4.022935 -9.556029 -31.509641 3.893190 0.000000 0.000000 0.000000 14.361606 8.687072 3.548379 56.515878 7.631976 -2.632960 1.671047 29.401347 1.638825 0.000000 0.000000 0.000000 
